<svg xmlns="http://www.w3.org/2000/svg" viewBox="0 0 299.17 238.03"><defs><style>.cls-1{fill:#fff;}</style></defs><title>1Fichier 1</title><g id="Calque_2" data-name="Calque 2"><g id="Calque_1-2" data-name="Calque 1"><path class="cls-1" d="M173.37,238V167H125.83V238H56.62c-9.13,0-13.92-4.78-13.92-13.87q0-42.76,0-85.53a4.84,4.84,0,0,1,1.94-4.16q45.81-37.65,91.53-75.41c3.78-3.11,7.62-6.16,11.3-9.39,1.59-1.4,2.66-1.36,4.29,0q30.38,25.19,60.84,50.23,21.09,17.39,42.19,34.73a4.55,4.55,0,0,1,1.74,4q0,43.13,0,86.27c0,8.09-5,13.12-13.16,13.13q-31.62,0-63.23,0Z"/><path class="cls-1" d="M149.52,31.76l-36.11,30.1Q67.94,99.75,22.49,137.64c-4.16,3.47-7.26,3.19-10.71-.91q-4.72-5.62-9.43-11.28c-3.36-4-3.16-7.11.89-10.5Q28.25,94,53.31,73.21,92.74,40.35,132.18,7.47c4.52-3.78,9.17-7,15.34-7.4a22.7,22.7,0,0,1,16.82,5.26l42.31,35.34c.6.5,1.24.95,2.28,1.75V39.35q0-15.57,0-31.13c0-5.75,2.07-7.8,7.83-7.8q15.94,0,31.87,0c5.76,0,7.84,2.08,7.84,7.8q0,35.67,0,71.33a4.75,4.75,0,0,0,1.86,4.15c12,9.91,24,19.91,36,29.88.81.68,1.65,1.35,2.42,2.07,2.82,2.62,3.27,5.73.91,8.71q-5.38,6.83-11.16,13.34c-2.72,3.07-6,3.11-9.31.36Q255.7,120.2,234.26,102.3l-82-68.43C151.4,33.19,150.55,32.56,149.52,31.76Z"/></g></g></svg>