<svg xmlns="http://www.w3.org/2000/svg" viewBox="0 0 383.97 384.02"><defs><style>.cls-1{fill:#191919;}.cls-2{fill:#fff;}</style></defs><title>1Fichier 2</title><g id="Calque_2" data-name="Calque 2"><g id="Calque_1-2" data-name="Calque 1"><path class="cls-1" d="M204,384H180c-1.59-.26-3.17-.62-4.77-.75a182.69,182.69,0,0,1-58.56-14.46c-38.3-16.75-68.47-42.88-89.93-78.88a181.49,181.49,0,0,1-23.8-64.5C1.8,218.32,1,211.15,0,204V180c.76-5.92,1.38-11.86,2.29-17.75,6.58-42.43,25.5-78.64,56.27-108.34C89.93,23.66,127.45,5.86,171,1.2c24.63-2.63,49-1,72.76,5.78,43.8,12.56,79.16,37.39,105.42,74.74,28.9,41.1,39.23,86.89,33.08,136.47a180.27,180.27,0,0,1-28.49,77.31q-44.53,68.1-124.24,84.86C221.13,382.11,212.52,382.82,204,384Zm.28-159.93.79,1.28a25,25,0,0,0-3.3,2.42q-21.27,21.15-42.44,42.4c-7.89,7.92-7.84,16.7,0,24.66q10.16,10.26,20.41,20.42c7.85,7.79,17.19,7.77,25.07-.1q55.3-55.26,110.56-110.57c7.9-7.9,7.93-17.23.08-25.09Q260.12,124.07,204.67,68.68c-7.69-7.68-17.08-7.64-24.8,0Q170,78.44,160.25,88.3c-8.74,8.74-8.77,17.71-.09,26.4l41.89,41.89c.9.9,1.75,1.85,3.19,3.37H82.8c-12.57,0-18.83,6.32-18.85,19q0,12.93,0,25.87c0,13.13,6.17,19.29,19.29,19.29h121Z"/><path class="cls-2" d="M204.28,224.09h-121C70.12,224.09,64,217.93,64,204.8q0-12.93,0-25.87c0-12.64,6.28-19,18.85-19H205.24c-1.44-1.52-2.29-2.47-3.19-3.37L160.16,114.7c-8.68-8.69-8.65-17.66.09-26.4q9.8-9.83,19.62-19.62c7.72-7.64,17.11-7.68,24.8,0q55.44,55.38,110.83,110.83c7.85,7.86,7.82,17.19-.08,25.09q-55.26,55.3-110.56,110.57c-7.88,7.87-17.22,7.89-25.07.1q-10.24-10.17-20.41-20.42c-7.89-8-7.94-16.74,0-24.66q21.15-21.27,42.44-42.4a25,25,0,0,1,3.3-2.42Z"/></g></g></svg>