<svg xmlns="http://www.w3.org/2000/svg" viewBox="0 0 720.39 646.66"><defs><style>.cls-1{fill:#d11f1e;}.cls-2{fill:#fff;}</style></defs><title>1Fichier 1</title><g id="Calque_2" data-name="Calque 2"><g id="Calque_1-2" data-name="Calque 1"><path class="cls-1" d="M0,1,1,0C2.53.07,4,.2,5.52.2L713,.24c6.8,0,6.8,0,6.8,7.11q0,312.47,0,624.93c0,4.29,1.91,9.71-.7,12.6-2.88,3.2-8.49,1.11-12.89,1.11q-350,.09-699.93.06c-2,0-4-.12-6-.18l0,0c0-3.5,0-7,0-10.49q0-314,0-627.92C.19,5.27.07,3.11,0,1ZM277.26,372c-2.43,15.28-.54,30.15,4.35,44.71,1.06,3.16,2.46,6.29,1.1,9.65-.48,1.19-.85,2,.4,2.94,1.56,1.15,2-.4,2.79-1,4.71-4,5.73-9.56,6.21-15.26a430.16,430.16,0,0,0,.67-56.88c-.3-6.35-.22-12.8-1.82-19.94-8.64,10.24-12.17,21.58-13.55,33.8Zm21.8-211c12,7.78,24.93,5.62,32.49-5.94,7.87-12,10.49-25.52,8.39-39.56-1.14-7.62-6.35-12.67-14.13-14.92-7.56-2.19-14.63-2.77-20.73,3.38-5.46,3.92-7.85,10.28-11.94,16.32-.82-2.73-1.25-4.47-1.86-6.15-4.81-13.18-13.3-17.59-26.91-14.15-5,1.26-9.7,3.38-14.55,5.08-5.32,1.86-7,5.44-7.58,10.81-1.34,12.73-1.27,25.59-3.52,38.23-1.34,7.53.48,9.84,8.09,11.16,3.12.54,4.27-.6,4.71-3.41.49-3.11,1.28-6.19,1.7-9.31.45-3.28,1.8-5.17,5.29-6.14,11.88-3.29,22.47-9,30.95-18.16l1.05,1.1c-.21,6.61-1.31,13.26.62,19.8C292.53,153.87,293.73,158.8,299.06,161ZM16.86,145.24c-.3,15.56-.45,31.12.08,46.68a14.51,14.51,0,0,0-.27,2q.22,41,.49,82,.78,104,1.61,208c.34,45.33.71,90.65.81,136,0,4.82,1.58,5.75,6,5.68,33.15-.54,66.3-.84,99.45-1.25,18-.21,36-.5,54-.71,9.82-.12,19.67-.56,29.46,0,3.94.23,5.06-.53,5.28-4.14.54-9.14,1.12-18.28,1.91-27.4a288.75,288.75,0,0,1,7.23-44.75,59.12,59.12,0,0,0-3.45,10.11,293.47,293.47,0,0,0-5.69,32.16c-.91,8.07-2.3,16.32-3.14,24.49-.46,4.4-1.58,5.75-6.1,5.67-41.15-.65-82.29-1.07-123.44-1.55-15.16-.17-30.33-.31-45.49-.5-7.35-.09-7.42-.13-7.37-7.19.13-17.83.36-35.65.5-53.48q1-135.71,2-271.42.6-85.72,1-171.45c.13-26.33.29-52.66.2-79,0-4.17,1.19-5.27,5.32-5.26q71.25.33,142.49.32,101.48.06,203,0,84.24,0,168.49-.26,66.24-.09,132.49-.09c2.4,0,4.77-.75,4.76,3.5,0,31.49.35,63,.42,94.48.16,65.15.29,130.31,1.13,195.46.43,33.31.52,66.64.76,100q.34,48.75.67,97.49.39,46.23.9,92.47c0,2.45.63,4.81-3.52,4.84q-53.73.32-107.46,1.07c-2.82,0-3.61-.88-4-3.58-3.31-23.74-7.57-47.32-13.1-70.64-2.91-12.3-8.54-23.17-18.42-31.51a61.59,61.59,0,0,1,15.52,30.07c5.25,24.25,8.77,48.81,11.86,73.42.85,6.79.69,6.81,7.41,6.88L693.5,625c1,0,2.18-.25,3,.2,2.9,1.66,3.15-.41,3.23-2.27.19-4.66.23-9.33.24-14,0-17.32.83-34.64.06-51.95,0-.68,0-1.36,0-2,1.17-1.27.7-2.85.72-4.29.12-9.16.19-18.33.26-27.49q1-132.93,2-265.87.63-93.21,1-186.42c.08-16.82-.31-33.66.21-50.48.17-5.58-1.51-6.43-6.5-6.42-52,0-104-.15-155.95-.28-45.32-.11-90.64-.3-136-.31-38.32,0-76.64.23-115,.31q-81.47.16-163,.25-52.74,0-105.48,0c-6.74,0-6.28-1.15-6.27,6.52q0,60,.17,120C16.26,142,15.75,143.75,16.86,145.24ZM382.59,244c4,.45,8.67.67,11.18,2.78,5.49,4.6,11.59,4.55,17.83,4.9A13.37,13.37,0,0,1,422.75,258c6.12,9.1,12.68,17.92,19,26.89,8.42,12,17.8,23.37,24.3,36.49,5.74,11.6,9.27,24.23,15.1,35.84a31.91,31.91,0,0,1,3.26,10.9,45.25,45.25,0,0,1-5.26,26.52c-7.44,14.26-9.43,28.85-3.63,44.32a91.71,91.71,0,0,1,5,19.83,29,29,0,0,1-3.76,19.83c5.57-2.87,7.24-6.78,8.49-10.95,2.7-9,2.45-18.3.51-27.23-3.18-14.68-1-27.81,7.24-40.45,7.7-11.75,9.27-25,7.38-38.87-1.07-7.83-5.46-14.25-8.31-21.3-5.65-14-10.55-28.33-20-40.52-12.57-16.14-26.23-31.3-39.65-46.69-7-8-15-9.77-24.58-8.19-3.29.53-6.67,1.24-9.76-.32C392.89,241.53,387.8,241.77,382.59,244ZM146.49,137c-2.62-7.68-3.58-15.43-4.37-23.07-.82-7.91-5.33-11.27-12.19-12.91-.77-.19-1.65.06-2.41-.14-6.5-1.73-7.07-1.64-8.24,4.82-2.87,15.87-5.46,31.8-6.55,47.93-.52,7.64.35,8.69,7.59,10.79,4.09,1.19,5.61,0,6.22-4.2,1.3-9,3.11-18,4.88-27.93,2.66,8,5.08,15,7.33,22.15,1.72,5.43,5.32,8.4,10.82,9.64,5.91,1.32,6.39,1,7.82-4.76,3.87-15.59,7.77-31.18,11.9-46.7,2-7.65,1-9.93-6.89-12.28-5.42-1.61-6.93-.93-8.27,4.45C151.5,115.42,149.08,126.07,146.49,137Zm282-39.14c-9-.07-16.76,4.36-24.88,7.34a4.61,4.61,0,0,0-2.67,3.37c-4.79,16.24-5.49,33.08-7.15,49.76-.35,3.52,3.7,5.9,9.32,6.35,4,.32,3.42-2.91,4-5.06.79-2.88,1.26-5.85,1.78-8.8.58-3.29,1.89-3.45,4.13-1.19A109.13,109.13,0,0,0,427.36,162c3.7,2.6,7.5,2.4,11.36,1,3.11-1.15,3.74-2.78.87-5.37-4.44-4-8.45-8.45-12.85-12.48-2.55-2.32-1.62-3.18.9-4.43,5.37-2.64,10.61-5.58,14.92-9.84,6.17-6.07,7.48-11.2,4.2-18.4C443.19,104.6,438.41,98,428.53,97.9Zm-86.65,43.25c.13,2.65.14,5.32.41,8,1,10,7.66,16.3,17.68,16.75,13.19.6,19.78-3.89,24.8-17,4.69-12.31,7.52-25.13,10.41-37.93.4-1.79.92-3.94-.71-5.18-4-3-8.38-6.34-13.47-5.36-4.24.82-2.48,5.89-3.71,9a8.79,8.79,0,0,0-.24,1.48c-2.5,12.89-4.81,25.84-9.86,38.06-1.35,3.24-2.68,8.46-6.63,7.55-4.5-1-3-6.32-2.73-10,.89-10.67,3.77-20.94,7-31.07,1.69-5.24.29-8.73-4.37-11.17-1.76-.93-3.57-1.76-5.39-2.55-3.44-1.49-5.64-.66-6.65,3.24C345.36,116.8,342.2,128.7,341.88,141.15ZM576,141.09c.17,7.29-.19,14.91,6.09,20.25,10.05,8.55,26.69,5.61,33.23-5.8,6.79-11.86,9.28-25.17,12.51-38.21,2.77-11.19,2.66-11.19-7.35-16.45a6.18,6.18,0,0,0-2.2-.79c-3.24-.38-5.73-.33-6,4.12-.28,4.11-1.41,8.18-2.26,12.24-2.6,12.35-4.78,24.83-10.56,36.24-1,2.05-2.46,4.63-5.11,3.89-2.3-.65-2.88-3.36-3.15-5.69a18.5,18.5,0,0,1,0-3.49c.85-10,3.63-19.58,6.77-29,3.53-10.59.25-13.15-8.65-16.72-3.77-1.52-5.85-.56-7,3.47C578.9,116.91,576.13,128.75,576,141.09Zm-1.39-18.33c-.1-1.33-.28-2.66-.29-4,0-8.49-4.24-14.15-11.94-17.27-8.54-3.47-17.05-4.39-24.07,2.95-12.67,13.25-17,29-12.55,46.88,2.14,8.56,8.82,12,16.91,13.36s15.48.55,21-6.81C571.4,147.41,574.12,135.47,574.58,122.76Zm73.34,43.13c9,.07,15.41-2,19.68-8.52,3-4.53,2.72-7.87-1.51-11.38a86.84,86.84,0,0,0-10.18-7c-10.37-6.41-12.48-12.1-6.92-20,1.82-2.59,3.82-7.05,7.15-5.71,2.63,1,1.06,5.58.57,8.56-1.15,7.08.92,10.39,7.46,13,3.61,1.42,5.44.23,6.85-2.89,1.6-3.51,2.35-7.27,3.26-11,3.38-13.83-7.21-25.93-21.5-24.26-10.73,1.26-16.85,8.9-21.59,17.47-6.24,11.29-4.05,19.68,6.4,27.23,4.3,3.1,8.86,5.84,13.25,8.82,1.18.8,3,1.67,2.42,3.34s-2.66,1.72-4.35,1.61c-4.63-.33-8.61-2.48-12.43-4.84-3-1.87-6.2-2.16-9.58-1.89-1.58.13-3.06.55-3.84,1.95-.92,1.68.44,2.9,1.45,3.88C631.51,161,639.28,166.19,647.92,165.89Zm-583,0c9.46-.11,14.36-3,18.59-10.82,2.47-4.58,1.24-6.5-4-7.15-5.57-.68-8.94,2.73-12.6,5.92-1.58,1.37-3.38,3.05-5.8,2.07s-2.93-3.55-3.05-5.84c-.75-13.42,3.91-25.13,11.77-35.73.91-1.23,2.14-2.85,4-2.2s2.19,2.61,2.2,4.53c0,3,0,6,1.62,8.72,2.61,4.27,10.09,6.37,12.39,3.44,2.68-3.41,2.64-18.07-.05-21.74-7.25-9.9-25.32-11.34-33.67-2.4-10,10.69-14.67,23.71-14.86,38.2C41.23,158.43,49.26,166,64.94,165.87Zm129.27-37c-6.35,0-6.35,0-4.72-6.28a29.2,29.2,0,0,0,.75-2.89c.61-4.18,3.16-5.75,7.2-5.89s8.27-.71,12.41-1.08c1.86-.17,3.68-.35,4.26-2.63,1.27-4.94-3.25-11.35-8.24-11.18a148.85,148.85,0,0,0-29.94,4.61c-2.16.53-2.85,1.68-3.14,3.75-2.06,14.88-4.33,29.73-6.33,44.61-1,7.34,6,14.59,13.34,13.56,6.89-1,13.7-2.62,20.52-4.07,1.15-.24,2.66-.2,2.66-2.26a8.26,8.26,0,0,0-8-8.21,45.93,45.93,0,0,0-7.42.58c-1.83.32-3.59,1.1-5-.64s.35-3.08.58-4.62c.39-2.55,2.3-3,4.36-3.29,4.59-.73,9.18-1.48,13.76-2.28,2.71-.47,4-1.59,3-4.78C202.44,129.92,201.2,128.86,194.21,128.89Zm324.46-16c2.86.87,5.73-1.74,9-1.76,1,0,1.36-.58,1.56-1.54.75-3.59-4.64-10.67-8.42-10.68-14.17,0-28.17,1.84-42.13,4.07-1.3.21-2.77.46-3.24,1.93-1.07,3.34,6.48,12.13,10.19,11.91,2.57-.15,6.07-2.48,7.41-.32,1.15,1.85-.38,5.38-.79,8.16-.17,1.15-.53,2.27-.75,3.41a245.14,245.14,0,0,0-4.22,30.15c-.3,4.25,3.91,7.14,10.44,7.64,4.18.32,3.73-3.09,4.2-5.46,2.92-14.53,6.59-28.87,10.09-43.26C512.94,113.4,514.5,112.12,518.67,112.91ZM94.24,122Q92.1,137.84,90,153.64c-1,7.39.44,9.56,7.55,11.17,3,.69,5,.54,6-3.58,3.64-16.41,7.19-32.86,12-49,.83-2.77,1.9-5.52-1.33-7.52-4.23-2.63-8.38-5.6-13.78-4.57a2.64,2.64,0,0,0-1.53,1.8C97.57,108.72,94.36,115,94.24,122ZM281.05,504.44c6,1.14,10.91,1.32,14.6-3.22A11.86,11.86,0,0,0,297,488.05c-4.29-9-7.74-18.37-12.86-26.95-2.31-3.85-3.57-4-5.56,0-5,10.09-5.21,20.39,1.26,29.79C283,495.47,287.18,499,281.05,504.44ZM208.19,70A6.8,6.8,0,0,0,203,71.64c-6.24,4.77-13.22,8.27-20.2,11.77-1.73.87-4.6,1.09-4.36,3.75s3.19,3,5.2,4c1.81.87,3.54.15,5.28-.5a139.25,139.25,0,0,0,21.48-10.27c2-1.16,4.85-1.81,3.88-5.39S210.51,70.61,208.19,70Z"/><path class="cls-2" d="M700,556.94c.77,17.31,0,34.63-.06,51.95,0,4.66,0,9.33-.24,14-.08,1.86-.33,3.93-3.23,2.27-.77-.45-2-.19-3-.2l-112.94-1.22c-6.72-.07-6.56-.09-7.41-6.88-3.09-24.61-6.61-49.17-11.86-73.42a61.59,61.59,0,0,0-15.52-30.07c9.88,8.34,15.51,19.21,18.42,31.51,5.53,23.32,9.79,46.9,13.1,70.64.38,2.7,1.17,3.62,4,3.58Q635,618.4,688.74,618c4.15,0,3.55-2.39,3.52-4.84q-.45-46.24-.9-92.47-.39-48.74-.67-97.49c-.24-33.31-.33-66.64-.76-100-.84-65.15-1-130.31-1.13-195.46-.07-31.5-.43-63-.42-94.48,0-4.25-2.36-3.5-4.76-3.5q-66.24,0-132.49.09-84.24.1-168.49.26-101.47.06-202.95,0-71.24-.06-142.49-.32c-4.13,0-5.33,1.09-5.32,5.26.09,26.33-.07,52.66-.2,79q-.45,85.73-1,171.45-.93,135.72-2,271.42c-.14,17.83-.37,35.65-.5,53.48-.05,7.06,0,7.1,7.37,7.19,15.16.19,30.33.33,45.49.5,41.15.48,82.29.9,123.44,1.55,4.52.08,5.64-1.27,6.1-5.67.84-8.17,2.23-16.42,3.14-24.49a293.47,293.47,0,0,1,5.69-32.16,59.12,59.12,0,0,1,3.45-10.11A288.75,288.75,0,0,0,215.63,592c-.79,9.12-1.37,18.26-1.91,27.4-.22,3.61-1.34,4.37-5.28,4.14-9.79-.58-19.64-.14-29.46,0-18,.21-36,.5-54,.71-33.15.41-66.3.71-99.45,1.25-4.39.07-6-.86-6-5.68-.1-45.33-.47-90.65-.81-136q-.78-104-1.61-207.95-.3-41-.49-82a14.51,14.51,0,0,1,.27-2c1.69,3.46,1.86,7.2,2.16,11,.66,8.15-1.18,16.33,1.77,24.51,2.74,7.61,2.71,15.87,2.15,24-.13,1.87,1.43,5.13-1.83,5.26-3.48.14-2-3.22-2-5-.2-5.81-.07-11.64-.07-17.46a9.14,9.14,0,0,0-1,4.93c-.54,24.3,1.69,48.56,1,72.86-.05,1.67-.07,3.34,0,5a12.12,12.12,0,0,0,.51,3.4c2.53,7.47,2,15.4,3,23.07.39,2.8-1.28,6.71-1.29,10.23,0,10.1,0,20.2,0,31.08,2.48-3.43,1.94-6.54,1.27-9.54s-1.28-5.71,3-6.36A1.81,1.81,0,0,0,27,366.5c-1.28-8,2.72-15.54,2-23.48-.68-7.41,0-14.82-.06-22.23-.16-67.47.23-135-.12-202.42-.14-26.72-.43-53.46.19-80.19,0-1.78.37-3.61-.69-5.36-.49-.82-2.42-.07-1.83-1.82,2.47.85,2.1-3.24,4.7-2.6a24.66,24.66,0,0,0,6.43.47c48-1.05,96-.51,144-1.36C287.32,25.64,393,26.92,498.64,27c4.46,0,9-1.79,13.41.41-.07,1-1.94,0-1.76,1.39q88,0,175.64-.1c2.69,0,3.2.88,3.21,3,.07,14.35.7,28.66,1.62,43,1.27,19.66.21,39.47.38,59.21.07,8.65-1.18,17.21-1.19,25.87,0,13.25.63,26.49.6,39.74,0,20.13-3.64,40.51,2.36,60.54,1.68,5.62-1.5,11.67-1.59,17.42-.45,29-.2,58-.15,87,0,1.28-.69,3,2,4.49V289.58l1.24-.17c.78,2.95,1,6.24,4,8.14,1.55-4.22-1-7.64-1.18-11.19-.75-12-1.47-24-1.82-36-1.09-38,.09-76-.54-114C694.3,97.92,698.56,59.52,697,21c-.09-2.36.87-3.89,3.87-5.75-3.07-.14-4.66-.22-6.26-.28-9.57-.37-19.17,0-28.72.15-40.32.81-80.67-2.34-121,1.6-12.87,1.26-26,.2-39,.2-17,0-34-.11-51,0-16.71.14-33.43-.42-50.14,0-4.45.1-8.32-2.31-13-2.14-31.64,1.14-63.32,1.05-95,1.59-91.2,1.55-182.45.6-273.69.41-5.35,0-6.21,1.69-6.18,6.49.18,38.5.11,77,.09,115.48,0,2.16-.17,4.32-.26,6.48-1.11-1.49-.6-3.22-.6-4.83q-.14-60-.17-120c0-7.67-.47-6.51,6.27-6.52q52.74-.06,105.48,0,81.48-.09,163-.25c38.32-.08,76.64-.32,115-.31,45.32,0,90.64.2,136,.31,52,.13,104,.32,155.95.28,5,0,6.67.84,6.5,6.42C703.64,37.17,704,54,704,70.83q-.45,93.21-1,186.42-.91,132.93-2,265.87c-.07,9.16-.14,18.33-.26,27.49,0,1.44.45,3-.72,4.29-1.6-1.7-.87-3.81-.87-5.73,0-31.5,0-63-.07-94.49,0-1.7,1-3.88-2.68-6.24,2.66,9.37-1.66,17-1.24,25,1,19.64-1.41,39.28,1.54,59,1.48,9.94.15,20.54-1,31-1.52,14.14-1.57,28.61-2.48,42.92-.1,1.57-1,4.24,1.8,4.33,2.41.07,3.63-1.87,4-4.26.48-3.06-1.31-5.94-.86-8.87,1.82-12.11.44-24.27.92-36.39C699.13,559.71,698.64,558.12,700,556.94ZM25.6,408.21h1V385.63h-1Z"/><path class="cls-2" d="M16.86,145.24c.09-2.16.26-4.32.26-6.48,0-38.49.09-77-.09-115.48,0-4.8.83-6.5,6.18-6.49,91.24.19,182.49,1.14,273.69-.41,31.64-.54,63.32-.45,95-1.59,4.65-.17,8.52,2.24,13,2.14,16.71-.4,33.43.16,50.14,0,17-.13,34,0,51,0,13,0,26.1,1.06,39-.2,40.31-3.94,80.66-.79,121-1.6,9.55-.19,19.15-.52,28.72-.15,1.6.06,3.19.14,6.26.28-3,1.86-4,3.39-3.87,5.75,1.53,38.51-2.73,76.91-2.09,115.43.63,38-.55,76,.54,114,.35,11.93,1.07,24,1.82,36,.23,3.55,2.73,7,1.18,11.19-3-1.9-3.25-5.19-4-8.14l-1.24.17V369c-2.73-1.54-2-3.21-2-4.49,0-29-.3-58,.15-87,.09-5.75,3.27-11.8,1.59-17.42-6-20-2.4-40.41-2.36-60.54,0-13.25-.62-26.49-.6-39.74,0-8.66,1.26-17.22,1.19-25.87-.17-19.74.89-39.55-.38-59.21-.92-14.35-1.55-28.66-1.62-43,0-2.13-.52-3-3.21-3q-87.73.2-175.64.1c-.18-1.36,1.69-.41,1.76-1.39-4.4-2.2-8.95-.41-13.41-.41-105.65-.06-211.32-1.34-316.94.53-48,.85-96,.31-144,1.36a24.66,24.66,0,0,1-6.43-.47c-2.6-.64-2.23,3.45-4.7,2.6-.59,1.75,1.34,1,1.83,1.82,1.06,1.75.73,3.58.69,5.36-.62,26.73-.33,53.47-.19,80.19.35,67.47,0,135,.12,202.42,0,7.41-.62,14.82.06,22.23.71,7.94-3.29,15.48-2,23.48a1.81,1.81,0,0,1-1.45,2.28c-4.25.65-3.64,3.35-3,6.36s1.21,6.11-1.27,9.54c0-10.88,0-21,0-31.08,0-3.52,1.68-7.43,1.29-10.23-1.05-7.67-.49-15.6-3-23.07a12.12,12.12,0,0,1-.51-3.4c-.09-1.66-.07-3.33,0-5,.7-24.3-1.53-48.56-1-72.86a9.14,9.14,0,0,1,1-4.93c0,5.82-.13,11.65.07,17.46.06,1.82-1.45,5.18,2,5,3.26-.13,1.7-3.39,1.83-5.26.56-8.1.59-16.36-2.15-24-2.95-8.18-1.11-16.36-1.77-24.51-.3-3.75-.47-7.49-2.16-11C16.41,176.36,16.56,160.8,16.86,145.24Zm5.75,164.31-.06.75c.09-.12.25-.23.26-.35S22.69,309.68,22.61,309.55ZM170.06,27.17c-.11.07-.26.13-.3.22s.1.2.16.31l.47-.37ZM22.61,305.55l-.06.75c.09-.12.25-.23.26-.35S22.69,305.68,22.61,305.55Z"/><path class="cls-2" d="M382.59,244c5.21-2.2,10.3-2.44,15.4.14,3.09,1.56,6.47.85,9.76.32,9.62-1.58,17.61.21,24.58,8.19C445.75,268,459.41,283.17,472,299.31c9.49,12.19,14.39,26.53,20,40.52,2.85,7.05,7.24,13.47,8.31,21.3,1.89,13.84.32,27.12-7.38,38.87-8.28,12.64-10.42,25.77-7.24,40.45,1.94,8.93,2.19,18.21-.51,27.23-1.25,4.17-2.92,8.08-8.49,10.95a29,29,0,0,0,3.76-19.83,91.71,91.71,0,0,0-5-19.83c-5.8-15.47-3.81-30.06,3.63-44.32a45.25,45.25,0,0,0,5.26-26.52,31.91,31.91,0,0,0-3.26-10.9c-5.83-11.61-9.36-24.24-15.1-35.84-6.5-13.12-15.88-24.53-24.3-36.49-6.32-9-12.88-17.79-19-26.89a13.37,13.37,0,0,0-11.15-6.36c-6.24-.35-12.34-.3-17.83-4.9C391.26,244.64,386.59,244.42,382.59,244Z"/><path class="cls-2" d="M146.49,137c2.59-11,5-21.62,7.64-32.21,1.34-5.38,2.85-6.06,8.27-4.45,7.86,2.35,8.93,4.63,6.89,12.28-4.13,15.52-8,31.11-11.9,46.7-1.43,5.79-1.91,6.08-7.82,4.76-5.5-1.24-9.1-4.21-10.82-9.64-2.25-7.11-4.67-14.16-7.33-22.15-1.77,9.94-3.58,18.9-4.88,27.93-.61,4.21-2.13,5.39-6.22,4.2-7.24-2.1-8.11-3.15-7.59-10.79,1.09-16.13,3.68-32.06,6.55-47.93,1.17-6.46,1.74-6.55,8.24-4.82.76.2,1.64,0,2.41.14,6.86,1.64,11.37,5,12.19,12.91C142.91,121.61,143.87,129.36,146.49,137Z"/><path class="cls-2" d="M428.53,97.9c9.88,0,14.66,6.7,18.23,14.54,3.28,7.2,2,12.33-4.2,18.4-4.31,4.26-9.55,7.2-14.92,9.84-2.52,1.25-3.45,2.11-.9,4.43,4.4,4,8.41,8.5,12.85,12.48,2.87,2.59,2.24,4.22-.87,5.37-3.86,1.44-7.66,1.64-11.36-1a109.13,109.13,0,0,1-14.29-12.33c-2.24-2.26-3.55-2.1-4.13,1.19-.52,2.95-1,5.92-1.78,8.8-.59,2.15,0,5.38-4,5.06-5.62-.45-9.67-2.83-9.32-6.35,1.66-16.68,2.36-33.52,7.15-49.76a4.61,4.61,0,0,1,2.67-3.37C411.77,102.26,419.48,97.83,428.53,97.9Zm-15.29,34.78c8-2.73,13.95-6.74,18.62-12.48,1.43-1.76,2.56-4.25.54-6.32-2.68-2.75-13.9-.15-15,3.5C415.88,122.08,414.78,126.9,413.24,132.68Z"/><path class="cls-2" d="M289.46,128.2c-8.48,9.17-19.07,14.87-30.95,18.16-3.49,1-4.84,2.86-5.29,6.14-.42,3.12-1.21,6.2-1.7,9.31-.44,2.81-1.59,3.95-4.71,3.41-7.61-1.32-9.43-3.63-8.09-11.16,2.25-12.64,2.18-25.5,3.52-38.23.57-5.37,2.26-9,7.58-10.81,4.85-1.7,9.54-3.82,14.55-5.08,13.61-3.44,22.1,1,26.91,14.15.61,1.68,1,3.42,1.86,6.15,4.09-6,6.48-12.4,11.94-16.32l.27.26c-.81,2.27.22,4.29,1.34,6.27a6.58,6.58,0,0,1-1.44.3c-1.36-.16-3.38-1.44-3.56.92-.15,1.91,2,1,3.15,1.25,1.85.42,4.14-.93,6.28,1.81-3.82-.4-6.24,1.45-8.94,2.5-1.68.64-.59,3.81-3.33,3.69-3.46-.15-5.07,3.35-5.15,5.11-.54,11.87-3.52,24.29,5.61,34.62l-.25.31c-5.33-2.16-6.53-7.09-7.93-11.86-1.93-6.54-.83-13.19-.62-19.8.65-.8,1.17-1.78.07-2.41C290.06,126.59,289.57,127.5,289.46,128.2Zm-32.07,5.32c8.27-2.56,14.4-6.23,18.61-12.6,1.29-2,2.24-4.33,0-6.31-2.55-2.26-13.33,0-14.35,3.18C260.08,122.63,259,127.62,257.39,133.52Z"/><path class="cls-2" d="M341.88,141.15c.32-12.45,3.48-24.35,6.56-36.28,1-3.9,3.21-4.73,6.65-3.24,1.82.79,3.63,1.62,5.39,2.55,4.66,2.44,6.06,5.93,4.37,11.17-3.25,10.13-6.13,20.4-7,31.07-.3,3.65-1.77,9,2.73,10,3.95.91,5.28-4.31,6.63-7.55,5.05-12.22,7.36-25.17,9.86-38.06a8.79,8.79,0,0,1,.24-1.48c1.23-3.06-.53-8.13,3.71-9,5.09-1,9.5,2.33,13.47,5.36,1.63,1.24,1.11,3.39.71,5.18-2.89,12.8-5.72,25.62-10.41,37.93-5,13.15-11.61,17.64-24.8,17-10-.45-16.66-6.71-17.68-16.75C342,146.47,342,143.8,341.88,141.15Z"/><path class="cls-2" d="M576,141.09c.16-12.34,2.93-24.18,6.29-35.93,1.15-4,3.23-5,7-3.47,8.9,3.57,12.18,6.13,8.65,16.72-3.14,9.41-5.92,19-6.77,29a18.5,18.5,0,0,0,0,3.49c.27,2.33.85,5,3.15,5.69,2.65.74,4.07-1.84,5.11-3.89,5.78-11.41,8-23.89,10.56-36.24.85-4.06,2-8.13,2.26-12.24.3-4.45,2.79-4.5,6-4.12a6.18,6.18,0,0,1,2.2.79c10,5.26,10.12,5.26,7.35,16.45-3.23,13-5.72,26.35-12.51,38.21-6.54,11.41-23.18,14.35-33.23,5.8C575.78,156,576.14,148.38,576,141.09Z"/><path class="cls-2" d="M574.58,122.76c-.46,12.71-3.18,24.65-11,35.13-5.48,7.36-12.83,8.14-21,6.81s-14.77-4.8-16.91-13.36c-4.47-17.86-.12-33.63,12.55-46.88,7-7.34,15.53-6.42,24.07-2.95,7.7,3.12,11.89,8.78,11.94,17.27C574.3,120.1,574.48,121.43,574.58,122.76Zm-34.39,22.9a18.31,18.31,0,0,1,.19,3.86,4.89,4.89,0,0,0,3.11,5.92c2.65,1.17,4.54-.76,5.87-2.65,7.83-11.13,10-23.64,8.68-36.93-.15-1.4-.58-3.06-2.52-3.27s-3.41.86-4.58,2.43A53.93,53.93,0,0,0,540.19,145.66Z"/><path class="cls-2" d="M647.92,165.89c-8.64.3-16.41-4.86-23.41-11.6-1-1-2.37-2.2-1.45-3.88.78-1.4,2.26-1.82,3.84-1.95,3.38-.27,6.55,0,9.58,1.89,3.82,2.36,7.8,4.51,12.43,4.84,1.69.11,3.7.14,4.35-1.61s-1.24-2.54-2.42-3.34c-4.39-3-9-5.72-13.25-8.82-10.45-7.55-12.64-15.94-6.4-27.23,4.74-8.57,10.86-16.21,21.59-17.47,14.29-1.67,24.88,10.43,21.5,24.26-.91,3.71-1.66,7.47-3.26,11-1.41,3.12-3.24,4.31-6.85,2.89-6.54-2.57-8.61-5.88-7.46-13,.49-3,2.06-7.51-.57-8.56-3.33-1.34-5.33,3.12-7.15,5.71-5.56,7.87-3.45,13.56,6.92,20a86.84,86.84,0,0,1,10.18,7c4.23,3.51,4.49,6.85,1.51,11.38C663.33,163.87,657,166,647.92,165.89Z"/><path class="cls-2" d="M64.94,165.87c-15.68.17-23.71-7.44-23.51-23,.19-14.49,4.87-27.51,14.86-38.2,8.35-8.94,26.42-7.5,33.67,2.4,2.69,3.67,2.73,18.33.05,21.74-2.3,2.93-9.78.83-12.39-3.44C76,122.66,76,119.64,76,116.65c0-1.92-.21-3.83-2.2-4.53s-3.08,1-4,2.2C62,124.92,57.29,136.63,58,150.05c.12,2.29.49,4.8,3.05,5.84s4.22-.7,5.8-2.07c3.66-3.19,7-6.6,12.6-5.92,5.28.65,6.51,2.57,4,7.15C79.3,162.91,74.4,165.76,64.94,165.87Z"/><path class="cls-2" d="M194.21,128.89c7,0,8.23,1,10,7,1,3.19-.33,4.31-3,4.78-4.58.8-9.17,1.55-13.76,2.28-2.06.33-4,.74-4.36,3.29-.23,1.54-2,2.93-.58,4.62s3.19,1,5,.64a45.93,45.93,0,0,1,7.42-.58,8.26,8.26,0,0,1,8,8.21c0,2.06-1.51,2-2.66,2.26-6.82,1.45-13.63,3.09-20.52,4.07-7.3,1-14.33-6.22-13.34-13.56,2-14.88,4.27-29.73,6.33-44.61.29-2.07,1-3.22,3.14-3.75a148.85,148.85,0,0,1,29.94-4.61c5-.17,9.51,6.24,8.24,11.18-.58,2.28-2.4,2.46-4.26,2.63-4.14.37-8.26.94-12.41,1.08s-6.59,1.71-7.2,5.89a29.2,29.2,0,0,1-.75,2.89C187.86,128.91,187.86,128.91,194.21,128.89Z"/><path class="cls-2" d="M518.67,112.91c-4.17-.79-5.73.49-6.64,4.25-3.5,14.39-7.17,28.73-10.09,43.26-.47,2.37,0,5.78-4.2,5.46-6.53-.5-10.74-3.39-10.44-7.64a245.14,245.14,0,0,1,4.22-30.15c.22-1.14.58-2.26.75-3.41.41-2.78,1.94-6.31.79-8.16-1.34-2.16-4.84.17-7.41.32-3.71.22-11.26-8.57-10.19-11.91.47-1.47,1.94-1.72,3.24-1.93,14-2.23,28-4.1,42.13-4.07,3.78,0,9.17,7.09,8.42,10.68-.2,1-.57,1.53-1.56,1.54C524.4,111.17,521.53,113.78,518.67,112.91Z"/><path class="cls-2" d="M94.24,122c.12-7,3.33-13.31,4.6-20.08a2.64,2.64,0,0,1,1.53-1.8c5.4-1,9.55,1.94,13.78,4.57,3.23,2,2.16,4.75,1.33,7.52-4.8,16.13-8.35,32.58-12,49-.92,4.12-2.92,4.27-6,3.58C90.41,163.2,89,161,90,153.64Q92.1,137.83,94.24,122Z"/><path class="cls-2" d="M305.08,103.92c6.1-6.15,13.17-5.57,20.73-3.38,7.78,2.25,13,7.3,14.13,14.92,2.1,14-.52,27.55-8.39,39.56-7.56,11.56-20.46,13.72-32.49,5.94l.25-.3c5.8-1,4-6.41,5.62-9.82.33-.72-.36-1.58-1.33-1.75a2.08,2.08,0,0,0-2.19.77c-.6.77.13,2.6-2.1,2.28.23-2.41-1.81-6.43,1.37-6.78,5.39-.59,4.34-3.77,4.38-6.92,0-2.83-.15-5.66.07-8.47.25-3.26.85-7.48,3.53-8.63,4-1.75,5.44-5.33,6.33-8.23,1.23-4,2-1.16,3.09-.52,0-.11-.06,0-.08.41-4.41,6.82-8.63,13.74-10.36,21.83-1.25,5.86-2.58,11.76-.28,17.66,1.47,3.79,3.88,4.36,6.82,1.59a16.27,16.27,0,0,0,3.07-3.89,57.67,57.67,0,0,0,7.13-32.56c-.31-4.51-2.24-5.88-6.39-4.57l-.11,0c.13-3.85,1.39-4.67,5.33-3.18s3.52,3.76,3.62,7.17c.17,6.13.21,12.07-1.13,18.13-.74,3.31-2.78,6.25-2.59,9.77l-.05,0c-2.78.83-2.06,2.34-.91,4.11,1.54,2.37,1.14,4.81.35,7.49-2.43-1.29-.48-3.82-2.83-5.34-2.12,4.34-5.57,6.95-10.63,7-.59,0-1.94,1.18-1.16,2.3s1.78,2.55,3.55,2.37c2.06-.21,5.65,1,5.9-.84.71-5.36,3.41-3.19,5.73-2,1.7.85,1.92-.45,2.72-1.14,5-4.32,7-10.24,8.67-16.32,2-7.12,4.17-14.17,4.71-21.65.22-3-2.87-4.94-2.07-7.95l.21-.42-.22.41c-2.76-.27-2.95-.29-2.86-1,.42-3.73-2-4.55-4.89-5-1.39-.2-3.37.66-3.92-1.19-1-3.35-2.48-3.5-4.87-1.34a1.69,1.69,0,0,1-2.29,0c-4.27-4-8.58-1.68-12.9-.18Z"/><path class="cls-2" d="M277.26,372l.15-2c3.17-.45,3.88-2.45,3.73-5.35-.19-3.44-.43-6.95,1.87-10,.64-.87,1.08-1.61,2.24-1.52,1.55.12,1.69,1.24,1.83,2.47.18,1.62-.62,3.53,1.07,5,1.94-2.17-.12-5.09,1.74-7,1.33.38,1.15,1.32,1.15,2.08q0,21,0,41.92a5,5,0,0,1-.59,2.84,7.94,7.94,0,0,0-.32,9.34c2.56,4.06-1.17,6.78-1.43,10.18,0,.38-2,.71-3.1.87-.69.09-.9-.58-1.24-1.2-3.64-6.66-3.48-14.33-5.16-21.44-1.6-6.73-3.82-14.1-1.24-21.44A4.41,4.41,0,0,0,277.26,372Z"/><path class="cls-2" d="M281.05,504.44c6.13-5.46,1.94-9-1.19-13.54-6.47-9.4-6.29-19.7-1.26-29.79,2-4,3.25-3.86,5.56,0,5.12,8.58,8.57,18,12.86,26.95a11.86,11.86,0,0,1-1.37,13.17C292,505.76,287.08,505.58,281.05,504.44Z"/><path class="cls-2" d="M700,556.94c-1.34,1.18-.85,2.77-.91,4.22-.48,12.12.9,24.28-.92,36.39-.45,2.93,1.34,5.81.86,8.87-.38,2.39-1.6,4.33-4,4.26-2.84-.09-1.9-2.76-1.8-4.33.91-14.31,1-28.78,2.48-42.92,1.12-10.42,2.45-21,1-31-2.95-19.74-.5-39.38-1.54-59-.42-8.05,3.9-15.64,1.24-25C700,450.8,699,453,699,454.68c.07,31.5,0,63,.07,94.49,0,1.92-.73,4,.87,5.73C700,555.58,700,556.26,700,556.94Z"/><path class="cls-2" d="M277.26,372a4.41,4.41,0,0,1,.71,4.71c-2.58,7.34-.36,14.71,1.24,21.44,1.68,7.11,1.52,14.78,5.16,21.44.34.62.55,1.29,1.24,1.2,1.1-.16,3.07-.49,3.1-.87.26-3.4,4-6.12,1.43-10.18a7.94,7.94,0,0,1,.32-9.34,5,5,0,0,0,.59-2.84q0-21,0-41.92c0-.76.18-1.7-1.15-2.08-1.86,1.89.2,4.81-1.74,7-1.69-1.46-.89-3.37-1.07-5-.14-1.23-.28-2.35-1.83-2.47-1.16-.09-1.6.65-2.24,1.52-2.3,3.08-2.06,6.59-1.87,10,.15,2.9-.56,4.9-3.73,5.35,1.38-12.22,4.91-23.56,13.55-33.8,1.6,7.14,1.52,13.59,1.82,19.94a430.16,430.16,0,0,1-.67,56.88c-.48,5.7-1.5,11.26-6.21,15.26-.75.64-1.23,2.19-2.79,1-1.25-.92-.88-1.75-.4-2.94,1.36-3.36,0-6.49-1.1-9.65C276.72,402.13,274.83,387.26,277.26,372Zm9.2,52.22c.28.12.62.4.82.32s.26-.51.38-.79c-.28-.12-.62-.4-.81-.32S286.58,423.92,286.46,424.2Z"/><path class="cls-2" d="M208.19,70c2.32.58,5.08,1.36,6.06,4.92s-1.88,4.23-3.88,5.39a139.25,139.25,0,0,1-21.48,10.27c-1.74.65-3.47,1.37-5.28.5-2-1-5-1.21-5.2-4s2.63-2.88,4.36-3.75c7-3.5,14-7,20.2-11.77A6.8,6.8,0,0,1,208.19,70Z"/><path class="cls-2" d="M25.6,408.21V385.62h1v22.58Z"/><path class="cls-2" d="M22.61,309.55c.08.13.21.27.2.4s-.17.23-.26.35Z"/><path class="cls-2" d="M170.06,27.17l.33.16-.47.37c-.06-.11-.18-.24-.16-.31S170,27.24,170.06,27.17Z"/><path class="cls-2" d="M22.61,305.55c.08.13.21.27.2.4s-.17.23-.26.35Z"/><path class="cls-1" d="M413.24,132.68c1.54-5.78,2.64-10.6,4.12-15.3,1.14-3.65,12.36-6.25,15-3.5,2,2.07.89,4.56-.54,6.32C427.19,125.94,421.24,130,413.24,132.68Z"/><path class="cls-2" d="M318.08,112.59c-1.12-.64-1.86-3.52-3.09.52-.89,2.9-2.29,6.48-6.33,8.23-2.68,1.15-3.28,5.37-3.53,8.63-.22,2.81,0,5.64-.07,8.47,0,3.15,1,6.33-4.38,6.92-3.18.35-1.14,4.37-1.37,6.78,2.23.32,1.5-1.51,2.1-2.28a2.08,2.08,0,0,1,2.19-.77c1,.17,1.66,1,1.33,1.75-1.61,3.41.18,8.82-5.62,9.82-9.13-10.34-6.15-22.76-5.61-34.63.08-1.76,1.69-5.26,5.15-5.11,2.74.12,1.65-3,3.33-3.69,2.7-1,5.12-2.9,8.94-2.5-2.14-2.74-4.43-1.39-6.28-1.81-1.15-.27-3.3.66-3.15-1.25.18-2.36,2.2-1.08,3.56-.92a6.58,6.58,0,0,0,1.44-.3c-1.12-2-2.15-4-1.34-6.27,4.32-1.5,8.63-3.77,12.9.18a1.69,1.69,0,0,0,2.29,0c2.39-2.16,3.87-2,4.87,1.34.55,1.85,2.53,1,3.92,1.19,2.89.41,5.31,1.23,4.89,5-.09.74.1.76,2.86,1h0c-.8,3,2.29,4.9,2.07,7.95-.54,7.48-2.73,14.53-4.71,21.65-1.69,6.08-3.66,12-8.67,16.32-.8.69-1,2-2.72,1.14-2.32-1.14-5-3.31-5.73,2-.25,1.85-3.84.63-5.9.84-1.77.18-2.73-1.19-3.55-2.37s.57-2.29,1.16-2.3c5.06-.05,8.51-2.66,10.63-7,2.35,1.52.4,4,2.83,5.34.79-2.68,1.19-5.12-.35-7.49-1.15-1.77-1.87-3.28.91-4.11a9.6,9.6,0,0,0,5.53,5.43c1.92-6.06-2-5.54-5.48-5.47-.19-3.52,1.85-6.46,2.59-9.77,1.34-6.06,1.3-12,1.13-18.13-.1-3.41.45-5.63-3.62-7.17s-5.2-.67-5.33,3.18l-.14-.33ZM301.22,127c-.67,0-1.42,0-1.6.75-.22.94.64,1,1.26,1.07s1.41,0,1.59-.74C302.7,127.14,301.82,127.17,301.22,127Z"/><path class="cls-1" d="M257.39,133.52c1.57-5.9,2.69-10.89,4.26-15.73,1-3.15,11.8-5.44,14.35-3.18,2.24,2,1.29,4.35,0,6.31C271.79,127.29,265.66,131,257.39,133.52Z"/><path class="cls-2" d="M289.46,128.2c.11-.7.6-1.61,1.12-1.31,1.1.63.58,1.61-.07,2.41Z"/><path class="cls-1" d="M540.19,145.66A53.93,53.93,0,0,1,550.94,115c1.17-1.57,2.52-2.65,4.58-2.43s2.37,1.87,2.52,3.27c1.35,13.29-.85,25.8-8.68,36.93-1.33,1.89-3.22,3.82-5.87,2.65a4.89,4.89,0,0,1-3.11-5.92A18.31,18.31,0,0,0,540.19,145.66Z"/><path class="cls-1" d="M318,113.06c4.15-1.31,6.08.06,6.39,4.57a57.67,57.67,0,0,1-7.13,32.56,16.27,16.27,0,0,1-3.07,3.89c-2.94,2.77-5.35,2.2-6.82-1.59-2.3-5.9-1-11.8.28-17.66,1.73-8.09,5.95-15,10.36-21.83C318,113,318,113.06,318,113.06Z"/><path class="cls-2" d="M318.08,112.59l-.34.1.14.33.11,0s0-.06,0-.06C318,112.62,318.05,112.48,318.08,112.59Z"/><path class="cls-2" d="M337.08,112.92l.22-.41-.21.42Z"/><path class="cls-2" d="M286.46,424.2c.12-.28.19-.71.39-.79s.53.2.81.32c-.12.28-.18.71-.38.79S286.74,424.32,286.46,424.2Z"/><path class="cls-2" d="M323.11,144.91c3.48-.07,7.4-.59,5.48,5.47a9.6,9.6,0,0,1-5.53-5.43Z"/><path class="cls-2" d="M301.22,127c.6.17,1.48.14,1.25,1.09-.18.74-.94.83-1.59.74s-1.48-.13-1.26-1.07C299.8,127,300.55,127,301.22,127Z"/></g></g></svg>